<svg width="16px" height="16px" viewBox="0 0 16 16" version="1.1" xmlns="http://www.w3.org/2000/svg" xmlns:xlink="http://www.w3.org/1999/xlink">
    <g id="Page-1" stroke="none" stroke-width="1" fill="none" fill-rule="evenodd">
        <path d="M5.38303179,16 C5.62057445,15.7087411 5.72566471,15.2307811 5.97346339,14.9755854 L5.97346339,14.8105292 C5.96953348,14.6926319 5.24643002,13.3093035 5.20320101,13.2660745 C5.07744388,13.1481772 5.00277559,11.540844 4.92417739,11.4701056 C4.77091089,11.320769 4.24823285,11.3011195 3.92991013,10.9945865 C3.88668112,10.9552874 3.55656867,9.83133307 3.41116199,9.69378622 C2.81381565,9.12001934 4.47616764,8.54232255 4.04387752,8.12575208 C3.57228831,7.67381241 3.43474145,6.80923218 3.1439281,6.10577827 L1.09644493,6.09791845 L1.09644493,6.06254926 C0.943178431,6.06647917 0.852790498,6.03110998 0.707383823,6.03110998 L0.707383823,5.99181088 C0.522678047,5.99574079 0.424430294,5.92500241 0.239724518,5.92893232 L0.239724518,5.88963321 L0.161126315,5.88963321 L0.161126315,5.85819393 C0.117897304,5.87784348 0.0235794608,5.78352564 0.0432290114,5.74815645 L0.00392991013,5.74815645 L-1.15463195e-14,5.55952076 L0.0392991013,5.55952076 L0.0392991013,5.52415157 L0.0746682924,5.52415157 L0.0746682924,5.48485247 L0.157196405,5.48092256 L0.153266495,5.44555337 L0.271163799,5.40625427 L0.271163799,5.36695517 L0.30653299,5.36695517 L0.30653299,5.32765607 L0.420500384,5.29228687 L0.420500384,5.25298777 C0.514818227,5.25298777 0.546257508,5.21368867 0.652365081,5.20975876 L0.652365081,5.17831948 C0.774192295,5.17438957 0.837070857,5.13509047 0.962827981,5.13116056 L0.962827981,5.09579137 C1.17111322,5.09186146 1.31651989,5.01326326 1.50515558,5.00933335 L1.50515558,4.97396415 L1.61912297,4.93466505 L1.61912297,4.89929586 L1.69379126,4.89536595 L1.69379126,4.85606685 L1.77631938,4.85606685 L1.77238947,4.82069766 L1.89028677,4.78139856 L1.89028677,4.74209946 C1.95709524,4.77353874 1.97674479,4.63599188 2.03962336,4.66743116 L2.03962336,4.62813206 L2.07892246,4.62813206 L2.07892246,4.59276287 L2.15359075,4.59276287 L2.15359075,4.55346377 L2.19288985,4.55346377 L2.19288985,4.51416467 L2.27148805,4.51023476 L2.27148805,4.47879548 L2.31078715,4.47486557 L2.31078715,4.43949638 L2.7941661,4.36875799 C2.88455403,4.29015979 2.97887188,4.21942141 3.06925981,4.12903348 C3.42295172,3.75962192 3.72948471,2.94613053 4.11068599,2.55313952 C4.22465339,2.43524221 3.99278869,2.50598059 4.10675608,2.38808329 C4.28360204,2.20730742 5.25428984,1.02440448 5.41934607,0.851488431 C5.62370139,0.639273284 7.96985774,0.332740294 8.4964657,0.061576495 C8.65759201,-0.0248815278 9.29030754,-0.0288114379 9.36104592,0.104805506 C9.39641511,0.171613979 9.51824233,0.116595237 9.56933116,0.163754158 C10.0212708,0.599974182 12.897965,1.83003605 13.597489,2.16407841 C14.3991907,2.5452797 13.8883024,3.83822013 14.7293032,4.37661781 C14.8195821,4.43358994 14.9421161,4.45693848 15.0817327,4.4612257 C14.7969539,6.04729951 14.7946064,7.46632579 14.7954712,8.72317224 C14.7027096,8.67658804 14.6342072,8.63433666 14.5956862,8.59734129 C14.5878264,8.58948147 14.3638215,8.28687839 14.3205925,8.26722884 C14.3088028,8.31045785 14.2891532,8.36154668 14.2930831,8.3694065 L14.253784,8.3694065 C14.2773635,8.40870561 14.2184148,8.45979444 14.1791157,8.4440748 L14.1791157,8.4833739 L14.1398166,8.4833739 L14.1398166,8.522673 L14.0612184,8.522673 L14.0651483,8.55804219 L13.9826202,8.55804219 L13.9826202,8.59734129 L13.8686528,8.63664039 L13.8332836,8.67200958 L13.7939845,8.67593949 C13.7939845,8.67593949 13.424573,8.82920599 13.3302552,8.8331359 L13.3302552,8.872435 L13.2123578,8.872435 L13.2162878,8.90780419 L12.8508061,8.85671536 C13.0669512,9.46978134 13.4049234,10.3265017 13.2280775,10.5072776 C13.0983905,10.6408946 13.1966382,10.8727593 13.074811,10.9985164 C12.9726333,11.104624 12.111983,11.407227 12.0098053,11.5094047 C11.7425715,11.7884283 12.1355625,12.3818447 11.8683286,12.6608684 C11.8329594,12.6962376 10.9958885,14.6611926 10.9998184,14.8065993 L11.0035073,15.0353088 C9.66102118,15.4631521 7.84352229,15.7837397 5.38303179,16 Z" id="Combined-Shape" fill="#ffffff" fill-rule="nonzero"></path>
    </g>
</svg>
